<svg xmlns="http://www.w3.org/2000/svg"
     viewBox="0 0 976.26 258.09"
     width="214" height="57"
     role="img" aria-label="RulesXP logo">
  <title>RulesXP</title>

  <rect width="100%" height="100%" fill="#FFFFFF" />

  <!-- "Rules" -->
  <g transform="translate(-9.6846 239.6297) scale(0.164564 -0.164564)">
    <path fill="#000000" transform="translate(0.0 0)" d="M1214 0H954L742 561H396V0H150V1365H742Q989 1365 1105.0 1253.5Q1221 1142 1221 965Q1221 702 975 603ZM396 758H702Q835 758 900.0 814.0Q965 870 965 968Q965 1058 901.0 1113.5Q837 1169 722 1169H396Z" />
    <path fill="#000000" transform="translate(1261.0 0)" d="M968 0H756V218Q670 -21 437 -21Q299 -21 218.0 64.5Q137 150 137 303V1010H370V352Q370 243 418.0 209.0Q466 175 512 175Q586 175 663.0 241.5Q740 308 740 525V1010H968Z" />
    <path fill="#000000" transform="translate(2311.0 0)" d="M364 0H136V1365H364Z" />
    <path fill="#000000" transform="translate(2757.0 0)" d="M779 322 985 294Q945 157 829.0 68.0Q713 -21 538 -21Q328 -21 200.0 120.0Q72 261 72 502Q72 731 201.0 881.0Q330 1031 551 1031Q767 1031 885.0 883.0Q1003 735 1003 503L1002 477H309Q309 374 328.5 312.0Q348 250 406.0 204.0Q464 158 551 158Q720 158 779 322ZM765 624Q764 733 699.5 802.0Q635 871 540 871Q446 871 383.0 806.5Q320 742 309 624Z" />
    <path fill="#000000" transform="translate(3776.0 0)" d="M14 232 228 273Q277 150 444 150Q656 150 656 275Q656 315 623.0 341.0Q590 367 545 376L361 411Q55 470 55 710Q55 844 152.0 937.5Q249 1031 441 1031Q761 1031 832 796L629 755Q597 869 447 869Q265 869 265 755Q265 676 412 646L629 601Q882 549 882 311Q882 144 752.0 61.5Q622 -21 443 -21Q288 -21 169.0 41.5Q50 104 14 232Z" />
  </g>

  <!-- "XP" (superscript) -->
  <g transform="translate(750.7652 130.3725) scale(0.111903 -0.111903)">
    <path fill="#DE482B" transform="translate(0.0 0)" d="M904 0H644L430 368L196 0H0L336 520L45 1010H306L472 713L661 1010H852L567 572Z" />
    <path fill="#DE482B" transform="translate(849.0 0)" d="M369 -341H137V1010H355V834Q460 1031 664 1031Q832 1031 932.0 885.0Q1032 739 1032 512Q1032 297 936.5 138.0Q841 -21 652 -21Q457 -21 369 141ZM369 414Q369 304 434.5 231.5Q500 159 580 159Q689 159 739.5 254.5Q790 350 790 497Q790 651 739.0 747.5Q688 844 587 844Q496 844 432.5 765.0Q369 686 369 558Z" />
  </g>

</svg>
